<?xml version="1.0" standalone="no"?>
<!DOCTYPE svg PUBLIC "-//W3C//DTD SVG 20010904//EN"
 "http://www.w3.org/TR/2001/REC-SVG-20010904/DTD/svg10.dtd">
<svg version="1.0" xmlns="http://www.w3.org/2000/svg"
 width="480.000000pt" height="480.000000pt" viewBox="0 0 480.000000 480.000000"
 preserveAspectRatio="xMidYMid meet">
<metadata>
Created by potrace 1.11, written by Peter Selinger 2001-2013
</metadata>
<g transform="translate(0.000000,480.000000) scale(0.100000,-0.100000)"
fill="#000000" stroke="none">
<path d="M2858 4752 c-33 -3 -46 -13 -120 -100 -46 -53 -87 -102 -93 -108 -5
-7 -19 -22 -29 -35 -27 -33 -192 -227 -224 -264 -15 -17 -47 -55 -72 -85 -24
-30 -52 -62 -60 -70 -9 -8 -27 -29 -40 -46 -14 -17 -72 -87 -130 -155 -58 -68
-114 -135 -125 -148 -11 -13 -24 -29 -30 -35 -5 -6 -35 -40 -65 -76 -30 -36
-59 -70 -65 -76 -5 -7 -28 -34 -51 -60 -23 -27 -98 -116 -169 -199 -70 -82
-146 -172 -168 -199 -96 -113 -205 -241 -222 -260 -5 -6 -32 -38 -59 -71 -27
-33 -54 -64 -60 -70 -6 -5 -31 -35 -56 -65 -25 -30 -47 -57 -50 -60 -31 -27
-398 -470 -392 -473 4 -2 277 -3 608 -2 l601 0 73 -160 c41 -88 95 -206 122
-262 26 -57 48 -105 48 -107 0 -2 22 -50 49 -107 27 -57 72 -156 101 -219 29
-63 73 -158 97 -210 25 -52 76 -162 113 -245 37 -82 87 -190 110 -240 23 -49
53 -115 67 -145 49 -107 85 -186 124 -270 l40 -85 604 0 c333 0 605 3 605 6 0
7 -36 90 -80 184 -15 33 -39 85 -53 115 -13 30 -38 84 -55 120 -16 36 -82 178
-145 315 -63 138 -130 282 -147 320 -18 39 -45 97 -60 130 -15 33 -42 92 -60
130 -18 39 -43 93 -55 120 -35 75 -309 672 -377 820 -33 72 -74 159 -90 195
-16 36 -77 167 -134 291 -57 124 -104 230 -104 235 0 5 12 23 28 39 15 17 61
71 102 120 41 50 77 92 80 95 3 3 44 50 90 105 46 55 94 111 106 125 12 14 40
46 61 71 21 25 61 72 88 104 73 86 122 144 164 194 20 24 45 53 56 65 11 11
40 46 65 76 24 30 68 82 96 115 28 33 122 143 209 245 221 261 236 278 277
324 20 22 35 42 33 44 -4 5 -1127 8 -1177 4z"/>
</g>
</svg>
